<svg xmlns="http://www.w3.org/2000/svg" width="256" height="256" viewBox="0 0 100 100"><rect width="100" height="100" rx="20" fill="#f5a623"></rect><path fill="#fff" d="M63.95 81.41L63.95 73.04L63.50 73.04Q62.69 74.84 61.61 76.55Q60.53 78.26 58.87 79.56Q57.20 80.87 54.86 81.68Q52.52 82.49 49.28 82.49L49.28 82.49Q39.02 82.49 34.03 74.21Q29.03 65.93 29.03 50.45L29.03 50.45Q29.03 34.25 34.52 25.88Q40.01 17.51 51.44 17.51L51.44 17.51Q55.85 17.51 59.09 18.68Q62.33 19.85 64.63 21.83Q66.92 23.81 68.45 26.28Q69.98 28.76 70.97 31.28L70.97 31.28L64.49 34.25Q63.68 32.18 62.65 30.34Q61.61 28.49 60.13 27.09Q58.64 25.70 56.57 24.89Q54.50 24.08 51.71 24.08L51.71 24.08Q44.15 24.08 40.59 29.75Q37.04 35.42 37.04 44.87L37.04 44.87L37.04 54.59Q37.04 59.36 37.76 63.27Q38.48 67.19 40.15 70.07Q41.81 72.95 44.47 74.52Q47.12 76.10 50.99 76.10L50.99 76.10Q57.11 76.10 60.53 72.41Q63.95 68.72 63.95 62.87L63.95 62.87L63.95 56.39L50.72 56.39L50.72 50.36L70.97 50.36L70.97 81.41L63.95 81.41Z"></path></svg>